<svg width="139" height="114" xmlns="http://www.w3.org/2000/svg" xmlns:xlink="http://www.w3.org/1999/xlink" overflow="hidden"><defs><clipPath id="clip0"><rect x="50" y="509" width="139" height="114"/></clipPath></defs><g clip-path="url(#clip0)" transform="translate(-50 -509)"><path d="" transform="translate(82.8193 578)"/><path d="M10.3516 11.1538C9.83398 11.1538 9.3466 11.0546 8.8894 10.8562 8.43221 10.6578 8.0354 10.3904 7.69897 10.054 7.36255 9.71753 7.09945 9.32072 6.90967 8.86353 6.71989 8.40633 6.625 7.91895 6.625 7.40137 6.625 6.74577 6.74146 6.22388 6.97437 5.83569 7.20728 5.44751 7.53939 5.02913 7.9707 4.58057 8.12598 4.40804 8.26831 4.27433 8.39771 4.17944 8.5271 4.08455 8.66081 3.95085 8.79883 3.77832 9.26465 3.26074 9.63989 2.68278 9.92456 2.04443 10.2092 1.40609 10.3516 0.724609 10.3516 0L10.3516-26.0342C10.3516-27.1383 10.4119-28.4582 10.5327-29.9937 10.6535-31.5291 10.8735-33.125 11.1926-34.7813 11.5118-36.4375 11.9388-38.0765 12.4736-39.6982 13.0085-41.32 13.6899-42.7735 14.5181-44.0588 15.3462-45.3442 16.3339-46.3836 17.4812-47.1772 18.6285-47.9709 19.9699-48.3677 21.5054-48.3677L54.9927-48.3677C56.1141-48.3677 57.1277-48.1434 58.0334-47.6948 58.9392-47.2463 59.7544-46.6467 60.479-45.8962 61.2036-45.1458 61.842-44.2831 62.394-43.3083 62.9461-42.3336 63.4206-41.32 63.8174-40.2676 64.2142-39.2152 64.5463-38.1671 64.8137-37.1233 65.0811-36.0795 65.2925-35.1177 65.4478-34.2378 65.6893-32.8921 65.8661-31.5378 65.9783-30.1748 66.0904-28.8118 66.1465-27.4316 66.1465-26.0342 66.1465-24.654 66.0904-23.2824 65.9783-21.9194 65.8661-20.5565 65.6893-19.2021 65.4478-17.8564 65.2925-16.9593 65.0811-15.9932 64.8137-14.958 64.5463-13.9229 64.2142-12.8791 63.8174-11.8267 63.4206-10.7743 62.9461-9.76066 62.394-8.78589 61.842-7.81112 61.2036-6.94849 60.479-6.198 59.7544-5.44751 58.9392-4.84798 58.0334-4.39941 57.1277-3.95085 56.1141-3.72656 54.9927-3.72656L51.2661-3.72656 51.2661 0C51.2661 1.20768 51.1195 2.33341 50.8262 3.3772 50.5329 4.42098 50.1188 5.39575 49.584 6.30151 49.0492 7.20728 48.4065 8.06128 47.656 8.86353 46.9055 9.66577 46.0731 10.4292 45.1587 11.1538Z" transform="translate(82.8193 578)"/><path d="M40.1123-26.0342 54.9927-26.0342 54.9927-7.45313 47.5396-7.45313Z" fill="#757575" transform="translate(82.8193 578)"/><path d="M21.5054-44.6411 54.9927-44.6411 54.9927-26.0342 47.5396-26.0342 41.458-13.0171 47.5396 0C47.5396 1.46647 47.2031 2.83805 46.5303 4.11475 45.8574 5.39144 44.9603 6.49561 43.8389 7.42725L10.3516 7.42725C11.4902 6.49561 12.396 5.39575 13.0688 4.12769 13.7417 2.85962 14.0781 1.48372 14.0781 0L20.7549-13.0171 14.0781-26.0342C14.0781-27.1729 14.1169-28.2986 14.1946-29.4114 14.2722-30.5242 14.3973-31.6413 14.5698-32.7627 14.6561-33.2975 14.7812-33.9618 14.9451-34.7554 15.109-35.549 15.3246-36.3857 15.592-37.2656 15.8595-38.1455 16.1829-39.0254 16.5625-39.9053 16.9421-40.7852 17.3734-41.5745 17.8564-42.2732 18.3395-42.9719 18.883-43.5413 19.4868-43.9812 20.0907-44.4211 20.7635-44.6411 21.5054-44.6411Z" fill="#FFFFFF" transform="translate(82.8193 578)"/><path d="M47.5396 0 14.0781 0 14.0781-26.0342 47.5396-26.0342Z" fill="#F2F2F2" transform="translate(82.8193 578)"/><path d="M54.9927-7.45313C54.2853-7.45312 53.6427-7.65153 53.0647-8.04834 52.4867-8.44515 51.9605-8.96273 51.4861-9.60107 51.0116-10.2394 50.5933-10.9554 50.231-11.749 49.8686-12.5426 49.5538-13.3449 49.2864-14.1558 49.019-14.9666 48.7947-15.7387 48.6135-16.4719 48.4324-17.2052 48.2987-17.8306 48.2124-18.3481 47.9709-19.6248 47.7983-20.9015 47.6948-22.1782 47.5913-23.4549 47.5396-24.7402 47.5396-26.0342 47.5396-27.2591 47.587-28.4711 47.6819-29.6702 47.7768-30.8692 47.9277-32.0726 48.1348-33.2803 48.221-33.7979 48.3504-34.4405 48.5229-35.2083 48.6955-35.976 48.9154-36.7826 49.1829-37.6279 49.4503-38.4733 49.7694-39.3144 50.1404-40.1511 50.5113-40.9879 50.9383-41.7384 51.4214-42.4026 51.9045-43.0668 52.4393-43.606 53.0259-44.02 53.6125-44.4341 54.2681-44.6411 54.9927-44.6411 55.7-44.6411 56.3513-44.4341 56.9465-44.02 57.5417-43.606 58.0766-43.0625 58.551-42.3896 59.0255-41.7168 59.4482-40.962 59.8191-40.1252 60.19-39.2885 60.5092-38.4517 60.7766-37.615 61.044-36.7782 61.264-35.976 61.4365-35.2083 61.609-34.4405 61.7384-33.7979 61.8247-33.2803 62.0317-32.0726 62.1827-30.8692 62.2776-29.6702 62.3725-28.4711 62.4199-27.2591 62.4199-26.0342 62.4199-24.7402 62.3682-23.4549 62.2646-22.1782 62.1611-20.9015 61.9886-19.6248 61.7471-18.3481 61.6608-17.8306 61.5271-17.2052 61.3459-16.4719 61.1648-15.7387 60.9405-14.9666 60.6731-14.1558 60.4057-13.3449 60.0908-12.5426 59.7285-11.749 59.3662-10.9554 58.9478-10.2394 58.4734-9.60107 57.9989-8.96273 57.4727-8.44515 56.8948-8.04834 56.3168-7.65153 55.6828-7.45312 54.9927-7.45313Z" fill="#CCCCCC" transform="translate(82.8193 578)"/><path d="M54.9927-32.5557C55.5448-32.5557 56.0019-32.2882 56.3643-31.7534 56.7266-31.2186 57.0112-30.5889 57.2183-29.8643 57.4253-29.1396 57.5719-28.415 57.6582-27.6904 57.7445-26.9658 57.7876-26.4137 57.7876-26.0342L54.9668-23.3945 52.1978-26.0342C52.1978-26.293 52.215-26.6337 52.2495-27.0564 52.284-27.4791 52.3401-27.932 52.4177-28.415 52.4954-28.8981 52.6032-29.3855 52.7412-29.8772 52.8792-30.3689 53.0518-30.8132 53.2588-31.21 53.4658-31.6068 53.7117-31.9303 53.9963-32.1804 54.281-32.4306 54.6131-32.5557 54.9927-32.5557Z" fill="#613D30" transform="translate(82.8193 578)"/><path d="M57.7876-26.0342C57.7876-25.7754 57.7703-25.439 57.7358-25.0249 57.7013-24.6108 57.6409-24.1623 57.5547-23.6792 57.4684-23.1961 57.3563-22.7087 57.2183-22.217 57.0802-21.7253 56.9077-21.2811 56.7007-20.8843 56.4937-20.4875 56.2478-20.164 55.9631-19.9138 55.6785-19.6637 55.355-19.5386 54.9927-19.5386 54.4233-19.5386 53.9575-19.806 53.5952-20.3408 53.2329-20.8757 52.9482-21.5011 52.7412-22.217 52.5342-22.933 52.3918-23.6533 52.3142-24.3779 52.2366-25.1025 52.1978-25.6546 52.1978-26.0342Z" fill="#8E562E" transform="translate(82.8193 578)"/></g></svg>