<svg width="136" height="114" xmlns="http://www.w3.org/2000/svg" xmlns:xlink="http://www.w3.org/1999/xlink" overflow="hidden"><defs><clipPath id="clip0"><rect x="552" y="509" width="136" height="114"/></clipPath></defs><g clip-path="url(#clip0)" transform="translate(-552 -509)"><path d="" transform="translate(584.796 578)"/><path d="M40.1123 11.1538C39.1807 11.1538 38.2835 11.0201 37.4209 10.7527 36.5583 10.4853 35.756 10.1057 35.0142 9.61401 34.2723 9.12231 33.6081 8.53573 33.0215 7.85425 32.4349 7.17277 31.9518 6.40934 31.5723 5.56396L25.2319 5.56396C24.3003 5.56396 23.4032 5.43457 22.5405 5.17578 21.6779 4.91699 20.8757 4.54606 20.1338 4.06299 19.3919 3.57992 18.7277 2.99333 18.1411 2.30322 17.5545 1.61312 17.0715 0.845378 16.6919 0L15.9155 0C14.6388 0 13.4355-0.24585 12.3054-0.737549 11.1754-1.22925 10.192-1.89779 9.35522-2.74316 8.51847-3.58854 7.85425-4.57625 7.36255-5.7063 6.87085-6.83634 6.625-8.03971 6.625-9.31641L6.625-22.3335C6.625-23.6102 6.87085-24.8136 7.36255-25.9436 7.85425-27.0736 8.51847-28.057 9.35522-28.8938 10.192-29.7305 11.1754-30.3948 12.3054-30.8865 13.4355-31.3782 14.6388-31.624 15.9155-31.624L16.6919-31.624C17.0715-32.4694 17.5545-33.2328 18.1411-33.9143 18.7277-34.5958 19.3919-35.1824 20.1338-35.6741 20.8757-36.1658 21.6779-36.5453 22.5405-36.8127 23.4032-37.0802 24.3003-37.2139 25.2319-37.2139L43.813-37.2139C45.3485-37.2139 46.7977-36.9206 48.1606-36.334 49.5236-35.7474 50.7097-34.9495 51.719-33.9402 52.7283-32.9309 53.5262-31.7448 54.1128-30.3818 54.6994-29.0189 54.9927-27.5697 54.9927-26.0342L54.9927-23.4204C55.8381-23.0409 56.6058-22.5578 57.2959-21.9712 57.986-21.3846 58.5726-20.7204 59.0557-19.9785 59.5387-19.2367 59.9097-18.4344 60.1685-17.5718 60.4272-16.7091 60.5566-15.812 60.5566-14.8804L60.5566-3.72656C60.5566-2.43262 60.3237-1.2465 59.8579-0.168213 59.3921 0.910075 58.7192 1.91504 57.8394 2.84668 55.9588 4.83073 54.0093 6.72852 51.9907 8.54004 51.0591 9.36816 50.0929 10.0108 49.0923 10.468 48.0916 10.9252 46.953 11.1538 45.6763 11.1538Z" transform="translate(584.796 578)"/><path d="M43.813-33.4873C44.8481-33.4873 45.8186-33.2932 46.7244-32.905 47.6301-32.5168 48.4194-31.9863 49.0923-31.3135 49.7651-30.6406 50.2957-29.8513 50.6838-28.9456 51.072-28.0398 51.2661-27.0693 51.2661-26.0342L51.2661-22.3076C51.2661-19.0986 51.3265-15.9198 51.4473-12.7712 51.568-9.62264 51.6284-6.44385 51.6284-3.23486 51.6284-2.47575 51.4775-1.76839 51.1755-1.11279 50.8736-0.457194 50.4639 0.120768 49.9463 0.621094 49.4287 1.12142 48.8335 1.51392 48.1606 1.79858 47.4878 2.08325 46.7804 2.22559 46.0386 2.22559 44.1063 2.22559 42.1869 2.1652 40.2805 2.04443 38.3741 1.92367 36.4548 1.86328 34.5225 1.86328L30.7959 1.86328C30.7959 1.86328 30.7528 1.85034 30.6665 1.82446 30.5802 1.79858 30.4854 1.76408 30.3818 1.72095 30.2783 1.67782 30.1834 1.639 30.0972 1.60449 30.0109 1.56999 29.9591 1.55273 29.9419 1.55273 29.8039 1.639 29.627 1.70801 29.4114 1.75977 29.1957 1.81152 28.9671 1.85034 28.7256 1.87622 28.484 1.9021 28.2511 1.91504 28.0269 1.91504 27.8026 1.91504 27.6042 1.91504 27.4316 1.91504 27.0693 1.91504 26.7027 1.90641 26.3318 1.88916 25.9609 1.87191 25.5942 1.86328 25.2319 1.86328 24.4556 1.86328 23.731 1.71663 23.0581 1.42334 22.3853 1.13005 21.7944 0.728922 21.2854 0.219971 20.7764-0.288981 20.3753-0.879883 20.082-1.55273 19.7887-2.22559 19.6421-2.9502 19.6421-3.72656L18.814-4.03711C18.7967-4.03711 18.7838-4.0328 18.7751-4.02417 18.7665-4.01554 18.7536-4.01123 18.7363-4.01123 18.443-3.92497 18.1799-3.85596 17.947-3.8042 17.7141-3.75244 17.451-3.72656 17.1577-3.72656L15.9155-3.72656C15.1392-3.72656 14.4145-3.87321 13.7417-4.1665 13.0688-4.4598 12.4823-4.86092 11.9819-5.36987 11.4816-5.87882 11.0848-6.46973 10.7915-7.14258 10.4982-7.81543 10.3516-8.54004 10.3516-9.31641L10.3516-22.3335C10.3516-23.1099 10.4982-23.8345 10.7915-24.5073 11.0848-25.1802 11.4816-25.7668 11.9819-26.2671 12.4823-26.7674 13.0688-27.1642 13.7417-27.4575 14.4145-27.7508 15.1392-27.8975 15.9155-27.8975L19.6421-27.8975C19.6421-28.6738 19.7887-29.3984 20.082-30.0713 20.3753-30.7441 20.7764-31.335 21.2854-31.844 21.7944-32.3529 22.3853-32.7541 23.0581-33.0474 23.731-33.3407 24.4556-33.4873 25.2319-33.4873Z" fill="#FFC83D" transform="translate(584.796 578)"/><path d="M51.2661-20.4702C52.0425-20.4702 52.7671-20.3236 53.4399-20.0303 54.1128-19.737 54.7037-19.3359 55.2126-18.8269 55.7216-18.318 56.1227-17.7271 56.416-17.0542 56.7093-16.3813 56.856-15.6567 56.856-14.8804L56.856-3.72656C56.856-3.00195 56.705-2.28597 56.4031-1.57861 56.1012-0.871257 55.7-0.267415 55.1997 0.23291L49.4028 5.87451C48.3332 6.90967 47.091 7.42725 45.6763 7.42725L40.1123 7.42725C39.3359 7.42725 38.6113 7.2806 37.9385 6.9873 37.2656 6.69401 36.6747 6.2972 36.1658 5.79688 35.6568 5.29655 35.2557 4.70996 34.9624 4.03711 34.6691 3.36426 34.5225 2.63965 34.5225 1.86328L40.1123 1.86328 40.1123-15.812C40.1123-16.0708 40.2029-16.2908 40.384-16.4719 40.5652-16.6531 40.7852-16.7437 41.0439-16.7437 41.3027-16.7437 41.5227-16.6531 41.7039-16.4719 41.885-16.2908 41.9756-16.0708 41.9756-15.812L41.9756 1.86328 45.6763 1.86328C46.4526 1.86328 47.1772 1.71663 47.8501 1.42334 48.5229 1.13005 49.1138 0.728922 49.6228 0.219971 50.1318-0.288981 50.5329-0.879883 50.8262-1.55273 51.1195-2.22559 51.2661-2.9502 51.2661-3.72656ZM29.8643-16.7437C30.123-16.7437 30.343-16.6531 30.5242-16.4719 30.7053-16.2908 30.7959-16.0708 30.7959-15.812L30.7959 1.86328 28.9326 1.86328 28.9326-15.812C28.9326-16.0535 29.0275-16.2692 29.2173-16.459 29.4071-16.6488 29.6227-16.7437 29.8643-16.7437ZM18.7104-16.7437C18.9692-16.7437 19.1892-16.6531 19.3704-16.4719 19.5515-16.2908 19.6421-16.0708 19.6421-15.812L19.6421-3.72656 17.7788-3.72656 17.7788-15.812C17.7788-16.0708 17.8694-16.2908 18.0505-16.4719 18.2317-16.6531 18.4517-16.7437 18.7104-16.7437Z" fill="#D48C00" transform="translate(584.796 578)"/></g></svg>