<svg width="136" height="114" xmlns="http://www.w3.org/2000/svg" xmlns:xlink="http://www.w3.org/1999/xlink" overflow="hidden"><defs><clipPath id="clip0"><rect x="1050" y="509" width="136" height="114"/></clipPath></defs><g clip-path="url(#clip0)" transform="translate(-1050 -509)"><path d="" transform="translate(1082.19 578)"/><path d="M6.625-4.19238 6.625-31.2876C6.625-32.0812 6.74577-32.8403 6.9873-33.5649 7.22884-34.2896 7.56958-34.9538 8.00952-35.5576 8.44946-36.1615 8.97567-36.692 9.58813-37.1492 10.2006-37.6064 10.8778-37.9644 11.6196-38.2231L27.2764-43.4507C29.916-44.3306 32.6506-44.7705 35.48-44.7705 38.2922-44.7705 41.0094-44.3306 43.6318-43.4507L59.2886-38.2231C60.0304-37.9644 60.7119-37.6107 61.333-37.1621 61.9541-36.7135 62.4803-36.183 62.9116-35.5706 63.3429-34.9581 63.6794-34.2896 63.9209-33.5649 64.1624-32.8403 64.2832-32.0812 64.2832-31.2876L64.2832-4.19238C64.2832-3.39876 64.1624-2.63965 63.9209-1.91504 63.6794-1.19043 63.3429-0.521891 62.9116 0.0905762 62.4803 0.703044 61.9541 1.23356 61.333 1.68213 60.7119 2.1307 60.0304 2.48438 59.2886 2.74316L43.6318 7.9707C41.0094 8.85059 38.2922 9.29053 35.48 9.29053 32.6678 9.29053 29.9419 8.85059 27.3022 7.9707L11.6196 2.74316C10.8778 2.50163 10.2006 2.15226 9.58813 1.69507 8.97567 1.23787 8.44946 0.703044 8.00952 0.0905762 7.56958-0.521891 7.22884-1.19043 6.9873-1.91504 6.74577-2.63965 6.625-3.39876 6.625-4.19238Z" transform="translate(1082.19 578)"/><path d="M10.3774-3.8042 10.3774-31.2876C10.3774-32.064 10.5974-32.767 11.0374-33.3967 11.4773-34.0264 12.0596-34.4621 12.7842-34.7036L28.4668-39.9312C29.6055-40.3107 30.7571-40.5911 31.9216-40.7722 33.0862-40.9534 34.2637-41.0439 35.4541-41.0439 36.6445-41.0439 37.822-40.9534 38.9866-40.7722 40.1511-40.5911 41.3027-40.3107 42.4414-39.9312L58.124-34.7036C58.8486-34.4621 59.4352-34.0221 59.8838-33.3838 60.3324-32.7454 60.5566-32.0467 60.5566-31.2876L60.5566-3.8042 29.5278 3.54541 12.7583-1.94092C12.7583-1.94092 12.6375-2.03149 12.396-2.21265 12.1545-2.3938 11.8914-2.59652 11.6067-2.8208 11.322-3.04508 11.0546-3.25643 10.8044-3.45483 10.5543-3.65324 10.4119-3.76969 10.3774-3.8042Z" fill="#B3DBF2" transform="translate(1082.19 578)"/><path d="M36.3857-36.2822 36.3857-24.1968 34.5225-24.1968 34.5225-36.2822C34.5225-36.541 34.613-36.761 34.7942-36.9421 34.9753-37.1233 35.1953-37.2139 35.4541-37.2139 35.7129-37.2139 35.9329-37.1233 36.114-36.9421 36.2952-36.761 36.3857-36.541 36.3857-36.2822ZM58.6934-6.54736 58.6934-17.9858C58.6934-18.1929 58.62-18.374 58.4734-18.5293 58.3267-18.6846 58.1499-18.7622 57.9429-18.7622 57.7703-18.7622 57.6108-18.7148 57.4641-18.6199 57.3175-18.525 57.2183-18.3999 57.1665-18.2446 56.8732-17.382 56.5756-16.5366 56.2737-15.7085 55.9718-14.8804 55.6526-14.0652 55.3162-13.2629 54.9797-12.4607 54.6131-11.6671 54.2163-10.8821 53.8195-10.0971 53.3796-9.31641 52.8965-8.54004L42.4414-12.0337C41.3027-12.4132 40.1511-12.6936 38.9866-12.8748 37.822-13.0559 36.6445-13.1465 35.4541-13.1465 34.2637-13.1465 33.0862-13.0559 31.9216-12.8748 30.7571-12.6936 29.6055-12.4132 28.4668-12.0337L18.0376-8.54004C18.6587-7.57389 19.297-6.69832 19.9526-5.91333 20.6082-5.12834 21.2897-4.38216 21.9971-3.6748 22.7044-2.96745 23.4549-2.28166 24.2485-1.61743 25.0422-0.953206 25.8789-0.267415 26.7588 0.439941 26.9658 0.612467 27.0693 0.810872 27.0693 1.03516 27.0693 1.24219 26.9917 1.42334 26.8364 1.57861 26.6812 1.73389 26.5 1.81152 26.293 1.81152 26.2585 1.81152 26.0644 1.75545 25.7107 1.64331 25.357 1.53117 24.8998 1.38452 24.3391 1.20337 23.7784 1.02222 23.1357 0.815185 22.4111 0.582275 21.6865 0.349365 20.9403 0.103516 20.1726-0.155273 19.4049-0.414062 18.6458-0.668538 17.8953-0.918701 17.1448-1.16886 16.4633-1.39746 15.8508-1.60449 15.2384-1.81152 14.7165-1.98836 14.2852-2.13501 13.8538-2.28166 13.5778-2.38086 13.457-2.43262 13.0775-2.58789 12.7756-2.81217 12.5513-3.10547 12.327-3.39876 12.2148-3.76107 12.2148-4.19238L12.2148-6.54736 12.5771-6.72852C12.3011-6.625 12.0337-6.46973 11.7749-6.2627 11.5161-6.05566 11.2832-5.82275 11.0762-5.56396 10.8691-5.30518 10.7009-5.02482 10.5715-4.7229 10.4421-4.42098 10.3774-4.11475 10.3774-3.8042 10.3774-3.4764 10.4465-3.15291 10.5845-2.83374 10.7225-2.51457 10.9036-2.21696 11.1279-1.94092 11.3522-1.66488 11.611-1.42765 11.9043-1.22925 12.1976-1.03084 12.4909-0.879883 12.7842-0.776367L28.4668 4.45117C30.7441 5.21029 33.0732 5.58984 35.4541 5.58984 37.835 5.58984 40.1641 5.21029 42.4414 4.45117L58.124-0.776367C58.4173-0.879883 58.7106-1.03084 59.0039-1.22925 59.2972-1.42765 59.556-1.66488 59.7803-1.94092 60.0046-2.21696 60.1857-2.51457 60.3237-2.83374 60.4618-3.15291 60.5308-3.4764 60.5308-3.8042 60.5308-4.35628 60.341-4.8868 59.9614-5.39575 59.5819-5.9047 59.1592-6.28857 58.6934-6.54736Z" fill="#83BEEC" transform="translate(1082.19 578)"/><path d="M58.124-6.80615C58.3483-6.71989 58.5381-6.63363 58.6934-6.54736L58.6934-4.19238C58.6934-3.77832 58.5812-3.41602 58.3569-3.10547 58.1326-2.79492 57.8307-2.56201 57.4512-2.40674 57.2786-2.33773 56.8473-2.18677 56.1572-1.95386 55.4671-1.72095 54.6519-1.44922 53.7117-1.13867 52.7714-0.828125 51.7751-0.500326 50.7227-0.155273 49.6702 0.189779 48.6955 0.508952 47.7983 0.802246 46.9012 1.09554 46.155 1.33708 45.5598 1.52686 44.9646 1.71663 44.6584 1.81152 44.6411 1.81152 44.4168 1.81152 44.2271 1.7382 44.0718 1.59155 43.9165 1.44491 43.8389 1.25944 43.8389 1.03516 43.8389 0.810872 43.9424 0.612467 44.1494 0.439941 45.0293-0.267415 45.866-0.953206 46.6597-1.61743 47.4533-2.28166 48.2081-2.96745 48.9241-3.6748 49.6401-4.38216 50.3258-5.12834 50.9814-5.91333 51.637-6.69832 52.2754-7.57389 52.8965-8.54004Z" fill="#3A96DD" transform="translate(1082.19 578)"/><path d="M54.8374-33.8237C51.6284-34.3586 48.4108-34.7424 45.1846-34.9753 41.9583-35.2083 38.7148-35.3247 35.4541-35.3247 32.1934-35.3247 28.9499-35.2083 25.7236-34.9753 22.4974-34.7424 19.2798-34.3586 16.0708-33.8237L29.062-38.1714C30.0972-38.5164 31.1539-38.7752 32.2322-38.9478 33.3105-39.1203 34.3931-39.2065 35.48-39.2065 36.5669-39.2065 37.6409-39.1203 38.7019-38.9478 39.7629-38.7752 40.811-38.5164 41.8462-38.1714ZM48.4712-29.4502C48.73-29.4502 48.95-29.3553 49.1311-29.1655 49.3123-28.9757 49.4028-28.7601 49.4028-28.5186 49.4028-28.3115 49.3424-28.1304 49.2217-27.9751 49.1009-27.8198 48.9456-27.7077 48.7559-27.6387L36.3857-23.5239 36.3857-3.72656C36.3857-3.46777 36.2952-3.2478 36.114-3.06665 35.9329-2.8855 35.7129-2.79492 35.4541-2.79492 35.1953-2.79492 34.9753-2.8855 34.7942-3.06665 34.613-3.2478 34.5225-3.46777 34.5225-3.72656L34.5225-23.5239 22.1523-27.6387C21.9626-27.7077 21.8073-27.8241 21.6865-27.988 21.5658-28.1519 21.5054-28.3288 21.5054-28.5186 21.5054-28.7773 21.5959-28.9973 21.7771-29.1785 21.9583-29.3596 22.1782-29.4502 22.437-29.4502 22.506-29.4502 22.8511-29.3553 23.4722-29.1655 24.0933-28.9757 24.8524-28.7299 25.7495-28.428 26.6466-28.1261 27.6171-27.8026 28.6609-27.4575 29.7047-27.1125 30.6967-26.7804 31.637-26.4612 32.5772-26.142 33.3967-25.8617 34.0955-25.6201 34.7942-25.3786 35.2471-25.2233 35.4541-25.1543 35.6611-25.2233 36.114-25.3786 36.8127-25.6201 37.5115-25.8617 38.331-26.142 39.2712-26.4612 40.2115-26.7804 41.2035-27.1125 42.2473-27.4575 43.2911-27.8026 44.2616-28.1261 45.1587-28.428 46.0558-28.7299 46.8106-28.9757 47.4231-29.1655 48.0356-29.3553 48.3849-29.4502 48.4712-29.4502ZM12.7842-6.80615C12.5599-6.71989 12.3701-6.63363 12.2148-6.54736L12.2148-17.9858C12.2148-18.2101 12.2882-18.3999 12.4348-18.5552 12.5815-18.7104 12.7669-18.7881 12.9912-18.7881 13.1637-18.7881 13.319-18.7363 13.457-18.6328 13.5951-18.5293 13.6899-18.3999 13.7417-18.2446L14.9321-14.8286C15.3289-13.7244 15.7861-12.6462 16.3037-11.5938 16.8213-10.5413 17.3993-9.52344 18.0376-8.54004Z" fill="#FFFFFF" transform="translate(1082.19 578)"/></g></svg>