<svg width="1114" height="64" xmlns="http://www.w3.org/2000/svg" xmlns:xlink="http://www.w3.org/1999/xlink" overflow="hidden"><defs><clipPath id="clip0"><rect x="60" y="455" width="1114" height="64"/></clipPath></defs><g clip-path="url(#clip0)" transform="translate(-60 -455)"><path d="M61 472.5C61 468.91 63.9102 466 67.5 466L1166.5 466C1170.09 466 1173 468.91 1173 472.5L1173 498.5C1173 502.09 1170.09 505 1166.5 505L67.5 505C63.9102 505 61 502.09 61 498.5Z" fill="#31D2F7" fill-rule="evenodd"/><path d="M88 486.5C88 469.103 102.103 455 119.5 455 136.897 455 151 469.103 151 486.5 151 503.897 136.897 518 119.5 518 102.103 518 88 503.897 88 486.5Z" fill="#31D2F7" fill-rule="evenodd"/><path d="M95 486C95 472.745 105.969 462 119.5 462 133.031 462 144 472.745 144 486 144 499.255 133.031 510 119.5 510 105.969 510 95 499.255 95 486Z" fill="#051C2C" fill-rule="evenodd"/><path d="M338 486.5C338 469.103 351.879 455 369 455 386.121 455 400 469.103 400 486.5 400 503.897 386.121 518 369 518 351.879 518 338 503.897 338 486.5Z" fill="#31D2F7" fill-rule="evenodd"/><path d="M345 486C345 472.745 355.745 462 369 462 382.255 462 393 472.745 393 486 393 499.255 382.255 510 369 510 355.745 510 345 499.255 345 486Z" fill="#051C2C" fill-rule="evenodd"/><path d="M587 486.5C587 469.103 601.103 455 618.5 455 635.897 455 650 469.103 650 486.5 650 503.897 635.897 518 618.5 518 601.103 518 587 503.897 587 486.5Z" fill="#31D2F7" fill-rule="evenodd"/><path d="M594 486C594 472.745 604.969 462 618.5 462 632.031 462 643 472.745 643 486 643 499.255 632.031 510 618.5 510 604.969 510 594 499.255 594 486Z" fill="#051C2C" fill-rule="evenodd"/><path d="M837 486.5C837 469.103 851.103 455 868.5 455 885.897 455 900 469.103 900 486.5 900 503.897 885.897 518 868.5 518 851.103 518 837 503.897 837 486.5Z" fill="#31D2F7" fill-rule="evenodd"/><path d="M844 486C844 472.745 854.745 462 868 462 881.255 462 892 472.745 892 486 892 499.255 881.255 510 868 510 854.745 510 844 499.255 844 486Z" fill="#051C2C" fill-rule="evenodd"/><path d="M1087 486.5C1087 469.103 1100.88 455 1118 455 1135.12 455 1149 469.103 1149 486.5 1149 503.897 1135.12 518 1118 518 1100.88 518 1087 503.897 1087 486.5Z" fill="#31D2F7" fill-rule="evenodd"/><path d="M1094 486C1094 472.745 1104.75 462 1118 462 1131.25 462 1142 472.745 1142 486 1142 499.255 1131.25 510 1118 510 1104.75 510 1094 499.255 1094 486Z" fill="#051C2C" fill-rule="evenodd"/><path d="M851 485.5C851 475.835 858.835 468 868.5 468 878.165 468 886 475.835 886 485.5 886 495.165 878.165 503 868.5 503 858.835 503 851 495.165 851 485.5Z" fill="#31D2F7" fill-rule="evenodd"/></g></svg>