<svg width="138" height="114" xmlns="http://www.w3.org/2000/svg" xmlns:xlink="http://www.w3.org/1999/xlink" overflow="hidden"><defs><clipPath id="clip0"><rect x="300" y="509" width="138" height="114"/></clipPath></defs><g clip-path="url(#clip0)" transform="translate(-300 -509)"><path d="" transform="translate(332.432 578)"/><path d="M48.2124 5.56396C45.9178 5.56396 43.744 5.08952 41.6909 4.14063 39.6379 3.19173 37.8695 1.84603 36.3857 0.103516 34.902 1.84603 33.1336 3.19173 31.0806 4.14063 29.0275 5.08952 26.8537 5.56396 24.5591 5.56396 22.437 5.56396 20.4486 5.17578 18.594 4.39941 16.7393 3.62305 15.0615 2.493 13.5605 1.00928 12.6462 0.112142 11.7706-0.737549 10.9338-1.53979 10.0971-2.34204 9.35954-3.17879 8.72119-4.05005 8.08284-4.92131 7.57389-5.87451 7.19434-6.90967 6.81478-7.94482 6.625-9.15251 6.625-10.5327L6.625-19.5386C6.625-20.3494 6.76733-21.1172 7.052-21.8418 7.33667-22.5664 7.72917-23.2177 8.22949-23.7957 8.72982-24.3736 9.32072-24.8524 10.0022-25.2319 10.6837-25.6115 11.4212-25.8617 12.2148-25.9824L12.2148-32.5557C12.2148-33.4183 12.3744-34.2378 12.6936-35.0142 13.0128-35.7905 13.4527-36.4677 14.0134-37.0457 14.5741-37.6236 15.234-38.0938 15.9932-38.4561 16.7523-38.8184 17.5632-39.0168 18.4258-39.0513 18.9779-40.1899 19.7801-41.0957 20.8325-41.7686 21.8849-42.4414 23.0495-42.7778 24.3262-42.7778 25.2061-42.7778 26.0428-42.6096 26.8364-42.2732 27.63-41.9368 28.3288-41.4666 28.9326-40.8628 29.2432-40.9146 29.5623-40.9404 29.8901-40.9404 30.7183-40.9404 31.5076-40.7895 32.2581-40.4875 33.0085-40.1856 33.6728-39.7673 34.2507-39.2324 34.8287-38.6976 35.3031-38.0722 35.6741-37.3562 36.045-36.6402 36.2736-35.8682 36.3599-35.04 36.4634-35.8682 36.7049-36.6402 37.0845-37.3562 37.464-38.0722 37.9428-38.6976 38.5208-39.2324 39.0987-39.7673 39.7629-40.1856 40.5134-40.4875 41.2639-40.7895 42.0532-40.9404 42.8813-40.9404 43.2091-40.9404 43.5283-40.9146 43.8389-40.8628 44.4427-41.4666 45.1414-41.9368 45.9351-42.2732 46.7287-42.6096 47.5654-42.7778 48.4453-42.7778 49.722-42.7778 50.8866-42.4457 51.939-41.7815 52.9914-41.1173 53.7936-40.2072 54.3457-39.0513 55.2083-39.0168 56.0149-38.8184 56.7654-38.4561 57.5159-38.0938 58.1715-37.6193 58.7322-37.0327 59.2929-36.4461 59.7371-35.769 60.0649-35.0012 60.3927-34.2335 60.5566-33.4183 60.5566-32.5557L60.5566-25.9824C61.3503-25.8617 62.0878-25.6115 62.7693-25.2319 63.4508-24.8524 64.0374-24.3736 64.5291-23.7957 65.0208-23.2177 65.4089-22.5664 65.6936-21.8418 65.9783-21.1172 66.1206-20.3494 66.1206-19.5386 66.1206-18.0203 66.1249-16.5194 66.1335-15.0356 66.1422-13.5519 66.1465-12.0509 66.1465-10.5327 66.1465-9.15251 65.9567-7.94482 65.5771-6.90967 65.1976-5.87451 64.6886-4.92131 64.0503-4.05005 63.4119-3.17879 62.6744-2.34204 61.8376-1.53979 61.0009-0.737549 60.1253 0.112142 59.2109 1.00928 57.71 2.493 56.0321 3.62305 54.1775 4.39941 52.3228 5.17578 50.3345 5.56396 48.2124 5.56396Z" transform="translate(332.432 578)"/><path d="M59.625-22.3335C60.0046-22.3335 60.3625-22.2602 60.699-22.1135 61.0354-21.9669 61.333-21.7642 61.5918-21.5054 61.8506-21.2466 62.0533-20.949 62.2-20.6125 62.3466-20.2761 62.4199-19.9181 62.4199-19.5386L62.4199-10.5327C62.4199-9.54932 62.2345-8.60042 61.8635-7.68604 61.4926-6.77165 60.9534-5.96077 60.2461-5.25342 59.2972-4.30452 58.4044-3.39876 57.5676-2.53613 56.7309-1.6735 55.8596-0.918701 54.9539-0.271729 54.0481 0.375244 53.0561 0.892822 51.9778 1.28101 50.8995 1.66919 49.6444 1.86328 48.2124 1.86328 47.1945 1.86328 46.2068 1.7382 45.2493 1.48804 44.2917 1.23787 43.386 0.87557 42.532 0.401123 41.678-0.0733235 40.8844-0.651286 40.1511-1.33276 39.4179-2.01424 38.7752-2.77767 38.2231-3.62305 38.2231-3.6748 38.2188-3.73519 38.2102-3.8042 38.2016-3.87321 38.1973-3.95085 38.1973-4.03711 38.1628-4.43392 38.1196-4.96444 38.0679-5.62866 38.0161-6.29289 37.9298-6.94849 37.8091-7.59546 37.6883-8.24243 37.5244-8.80314 37.3174-9.27759 37.1104-9.75203 36.8429-9.98926 36.5151-9.98926L36.3857-9.96338C36.3857-8.32438 36.0752-6.7889 35.4541-5.35693 34.833-3.92497 33.9876-2.67415 32.918-1.60449 31.8483-0.534831 30.5932 0.310547 29.1526 0.931641 27.712 1.55273 26.1808 1.86328 24.5591 1.86328 23.1271 1.86328 21.872 1.66919 20.7937 1.28101 19.7154 0.892822 18.7234 0.375244 17.8176-0.271729 16.9119-0.918701 16.0406-1.6735 15.2039-2.53613 14.3671-3.39876 13.4743-4.30452 12.5254-5.25342 11.818-5.96077 11.2789-6.77165 10.908-7.68604 10.537-8.60042 10.3516-9.54932 10.3516-10.5327L10.3516-19.5386C10.3516-19.9181 10.4249-20.2761 10.5715-20.6125 10.7182-20.949 10.9209-21.2466 11.1797-21.5054 11.4385-21.7642 11.7361-21.9669 12.0725-22.1135 12.4089-22.2602 12.7669-22.3335 13.1465-22.3335 13.526-22.3335 13.884-22.2602 14.2205-22.1135 14.5569-21.9669 14.8502-21.7642 15.1003-21.5054 15.3505-21.2466 15.5489-20.949 15.6956-20.6125 15.8422-20.2761 15.9155-19.9181 15.9155-19.5386L17.7788-35.1953C18.0894-35.2988 18.3999-35.3506 18.7104-35.3506 19.09-35.3506 19.4523-35.2773 19.7974-35.1306 20.1424-34.984 20.44-34.7856 20.6902-34.5354 20.9403-34.2852 21.1388-33.9876 21.2854-33.6426 21.432-33.2975 21.5054-32.9352 21.5054-32.5557L23.3687-38.896C23.6965-39.0168 24.007-39.0771 24.3003-39.0771 24.6798-39.0771 25.0378-39.0038 25.3743-38.8572 25.7107-38.7105 26.0083-38.5078 26.2671-38.249 26.5259-37.9902 26.7286-37.6926 26.8752-37.3562 27.0219-37.0198 27.0952-36.6618 27.0952-36.2822L27.0952-34.4189 28.9326-37.0586C29.2432-37.1621 29.5537-37.2139 29.8643-37.2139 30.2438-37.2139 30.6018-37.1405 30.9382-36.9939 31.2747-36.8472 31.5723-36.6445 31.8311-36.3857 32.0898-36.127 32.2926-35.8293 32.4392-35.4929 32.5859-35.1565 32.6592-34.7985 32.6592-34.4189L32.6592-29.7607 34.5225-31.624C35.04-31.624 35.48-31.4429 35.8423-31.0806 36.2046-30.7183 36.3857-30.2783 36.3857-29.7607L38.249-31.624C38.7666-31.624 39.2065-31.4429 39.5688-31.0806 39.9312-30.7183 40.1123-30.2783 40.1123-29.7607L41.9497-37.0586C42.2603-37.1621 42.5794-37.2139 42.9072-37.2139 43.2868-37.2139 43.6448-37.1405 43.9812-36.9939 44.3176-36.8472 44.6109-36.6445 44.8611-36.3857 45.1112-36.127 45.3097-35.8293 45.4563-35.4929 45.6029-35.1565 45.6763-34.7985 45.6763-34.4189L47.5396-38.896C47.8673-39.0168 48.1779-39.0771 48.4712-39.0771 48.8507-39.0771 49.2087-39.0038 49.5452-38.8572 49.8816-38.7105 50.1792-38.5078 50.438-38.249 50.6968-37.9902 50.8995-37.6926 51.0461-37.3562 51.1928-37.0198 51.2661-36.6618 51.2661-36.2822L51.2661-32.5557 53.1294-35.1953C53.4399-35.2988 53.7505-35.3506 54.061-35.3506 54.4406-35.3506 54.7986-35.2773 55.135-35.1306 55.4714-34.984 55.769-34.7813 56.0278-34.5225 56.2866-34.2637 56.4893-33.9661 56.636-33.6296 56.7826-33.2932 56.856-32.9352 56.856-32.5557L56.856-19.5386 58.6934-22.1782C59.0039-22.2817 59.3144-22.3335 59.625-22.3335Z" fill="#FFC83D" transform="translate(332.432 578)"/><path d="M21.5054-14.8804C22.5405-14.8804 23.5067-14.6863 24.4038-14.2981 25.3009-13.9099 26.0859-13.3794 26.7588-12.7065 27.4316-12.0337 27.9622-11.2487 28.3503-10.3516 28.7385-9.45443 28.9326-8.48828 28.9326-7.45313L28.9326-6.93555C28.9326-6.60775 28.8852-6.30151 28.7903-6.01685 28.6954-5.73218 28.4409-5.58984 28.0269-5.58984 27.7681-5.58984 27.5481-5.68042 27.3669-5.86157 27.1858-6.04272 27.0952-6.26269 27.0952-6.52148L27.0952-7.45313C27.0952-8.22949 26.9486-8.9541 26.6553-9.62695 26.362-10.2998 25.9609-10.8864 25.4519-11.3867 24.943-11.887 24.352-12.2839 23.6792-12.5771 23.0063-12.8704 22.2817-13.0171 21.5054-13.0171L15.9155-13.0171 15.9155-32.5557C15.9155-33.1595 16.0881-33.6986 16.4331-34.1731 16.7782-34.6475 17.2267-34.9797 17.7788-35.1694L17.7788-14.8804ZM56.856-19.5386C56.856-20.1252 57.0242-20.6557 57.3606-21.1301 57.697-21.6046 58.1413-21.9453 58.6934-22.1523L58.6934-13.0171 51.2661-13.0171C50.4897-13.0171 49.7651-12.8704 49.0923-12.5771 48.4194-12.2839 47.8285-11.887 47.3196-11.3867 46.8106-10.8864 46.4095-10.2998 46.1162-9.62695 45.8229-8.9541 45.6763-8.22949 45.6763-7.45313L45.6763-6.52148C45.6763-6.26269 45.5857-6.04272 45.4045-5.86157 45.2234-5.68042 45.0034-5.58984 44.7446-5.58984 44.5031-5.58984 44.2874-5.68473 44.0977-5.87451 43.9079-6.06429 43.813-6.27995 43.813-6.52148L43.813-7.45313C43.813-8.48828 44.0071-9.45443 44.3953-10.3516 44.7834-11.2487 45.314-12.0337 45.9868-12.7065 46.6597-13.3794 47.449-13.9099 48.3547-14.2981 49.2605-14.6863 50.231-14.8804 51.2661-14.8804L56.856-14.8804ZM36.3857-29.7607C36.3857-30.2611 36.5626-30.6967 36.9163-31.0676 37.2699-31.4386 37.6969-31.624 38.1973-31.624L38.1973-3.62305C37.6279-4.57194 37.1837-5.58122 36.8645-6.65088 36.5453-7.72054 36.3857-8.82471 36.3857-9.96338ZM22.437-20.4702C22.1782-20.4702 21.9583-20.5608 21.7771-20.7419 21.5959-20.9231 21.5054-21.1431 21.5054-21.4019L21.5054-36.2822C21.5054-36.8861 21.6779-37.4252 22.0229-37.8997 22.368-38.3741 22.8166-38.7062 23.3687-38.896L23.3687-21.4019C23.3687-21.1431 23.2781-20.9231 23.0969-20.7419 22.9158-20.5608 22.6958-20.4702 22.437-20.4702ZM46.6079-20.4702C46.3491-20.4702 46.1292-20.5608 45.948-20.7419 45.7668-20.9231 45.6763-21.1431 45.6763-21.4019L45.6763-36.2822C45.6763-36.8861 45.8488-37.4252 46.1938-37.8997 46.5389-38.3741 46.9875-38.7062 47.5396-38.896L47.5396-21.4019C47.5396-21.1431 47.449-20.9231 47.2678-20.7419 47.0867-20.5608 46.8667-20.4702 46.6079-20.4702ZM40.1123-34.4189C40.1123-35.0228 40.2848-35.5619 40.6299-36.0364 40.9749-36.5108 41.4235-36.8429 41.9756-37.0327L41.9756-21.4019C41.9756-21.1603 41.8807-20.9447 41.6909-20.7549 41.5011-20.5651 41.2855-20.4702 41.0439-20.4702 40.7852-20.4702 40.5652-20.5608 40.384-20.7419 40.2029-20.9231 40.1123-21.1431 40.1123-21.4019ZM27.0952-34.4189C27.0952-35.0055 27.2634-35.5404 27.5999-36.0234 27.9363-36.5065 28.3805-36.8429 28.9326-37.0327L28.9326-21.4019C28.9326-21.1603 28.842-20.9447 28.6609-20.7549 28.4797-20.5651 28.2684-20.4702 28.0269-20.4702 27.7681-20.4702 27.5481-20.5608 27.3669-20.7419 27.1858-20.9231 27.0952-21.1431 27.0952-21.4019ZM52.1978-20.4702C51.939-20.4702 51.719-20.5608 51.5378-20.7419 51.3567-20.9231 51.2661-21.1431 51.2661-21.4019L51.2661-32.5557C51.2661-33.1595 51.4386-33.6986 51.7837-34.1731 52.1287-34.6475 52.5773-34.9797 53.1294-35.1694L53.1294-21.4019C53.1294-21.1431 53.0388-20.9231 52.8577-20.7419 52.6765-20.5608 52.4565-20.4702 52.1978-20.4702ZM32.6592-29.7607C32.6592-30.2783 32.8403-30.7183 33.2026-31.0806 33.5649-31.4429 34.0049-31.624 34.5225-31.624L34.5225-21.4019C34.5225-21.1431 34.4319-20.9231 34.2507-20.7419 34.0696-20.5608 33.8496-20.4702 33.5908-20.4702 33.332-20.4702 33.1121-20.5608 32.9309-20.7419 32.7498-20.9231 32.6592-21.1431 32.6592-21.4019Z" fill="#D48C00" transform="translate(332.432 578)"/></g></svg>